<svg xmlns="http://www.w3.org/2000/svg" xmlns:xlink="http://www.w3.org/1999/xlink" width="287.96" height="132.83" viewBox="0 0 287.96 132.83"><defs><linearGradient id="a" x1="40.72" x2="40.72" y2="126.55" gradientUnits="userSpaceOnUse"><stop offset="0" stop-color="#cd2f2d"/><stop offset="1"/></linearGradient></defs><title>cognicao-e-linguagem</title><path d="M178,41.2H181v8.66h-2V44l-.78,5.84h-1.4L176,44.15v5.71h-2V41.2h2.91q.13.78.27,1.84l.32,2.2Zm-5.69,0,1.29,8.66h-2.3l-.12-1.56h-.81l-.14,1.56H168l1.15-8.66Zm-1.19,5.57q-.17-1.47-.34-3.64-.34,2.49-.43,3.64Zm-4.81-1.43a1.69,1.69,0,0,1,.9.44,1.33,1.33,0,0,1,.29.51,8,8,0,0,1,.06,1.28v2.28H165.5V47a2,2,0,0,0-.11-.86q-.11-.17-.57-.17v3.9h-2.25V41.2h1.59a12.17,12.17,0,0,1,2.16.12,1.49,1.49,0,0,1,.92.63,2.85,2.85,0,0,1,.36,1.61,2.52,2.52,0,0,1-.25,1.36A1.32,1.32,0,0,1,166.35,45.34Zm-.85-2a.72.72,0,0,0-.15-.54.84.84,0,0,0-.54-.13v1.92a1,1,0,0,0,.53-.1c.1-.07.15-.29.15-.68Zm-21.59-.93a5.93,5.93,0,0,1,.09,1.2v.75a3.13,3.13,0,0,1-.17,1.21,1.17,1.17,0,0,1-.63.58,3,3,0,0,1-1.19.2h-.6v3.49h-2.25V41.2h2.27a5.32,5.32,0,0,1,1.41.14,1.58,1.58,0,0,1,.74.42A1.44,1.44,0,0,1,143.92,42.43Zm-1.79,1a.84.84,0,0,0-.14-.58.87.87,0,0,0-.58-.13v2.2h.17a.52.52,0,0,0,.43-.15,1.12,1.12,0,0,0,.12-.63Zm69.62-3.91h-1.9l-.94,1.45H210Zm51.88.91a1.69,1.69,0,0,1,.57.16l.4.15a2.2,2.2,0,0,0,.82.18,1.27,1.27,0,0,0,.63-.21,1.62,1.62,0,0,0,.6-.76l-.86-.61a.58.58,0,0,1-.59.48,2.06,2.06,0,0,1-.57-.15l-.33-.12a2.39,2.39,0,0,0-.84-.17q-.74,0-1.32,1l.85.56Q263.23,40.4,263.63,40.4ZM148.44,45.34a1.69,1.69,0,0,1,.9.44,1.33,1.33,0,0,1,.29.51,8,8,0,0,1,.06,1.28v2.28h-2.09V47a2,2,0,0,0-.11-.86q-.11-.17-.57-.17v3.9h-2.25V41.2h1.59a12.17,12.17,0,0,1,2.16.12,1.49,1.49,0,0,1,.92.63,2.85,2.85,0,0,1,.36,1.61,2.52,2.52,0,0,1-.25,1.36A1.32,1.32,0,0,1,148.44,45.34Zm-.85-2a.72.72,0,0,0-.15-.54.84.84,0,0,0-.54-.13v1.92a1,1,0,0,0,.53-.1c.1-.07.15-.29.15-.68Zm13.06-1.92A3.06,3.06,0,0,0,159,41a2.69,2.69,0,0,0-1.64.47,1.85,1.85,0,0,0-.77,1,8.63,8.63,0,0,0-.13,1.8v2.57a10.2,10.2,0,0,0,.06,1.34,2.15,2.15,0,0,0,.32.85,2,2,0,0,0,.75.68,2.15,2.15,0,0,0,1.06.28,1.64,1.64,0,0,0,.83-.2,1.58,1.58,0,0,0,.58-.6l.21.62h1.41V45.21h-2.64v1.32h.45v1a2.44,2.44,0,0,1-.09.81.33.33,0,0,1-.33.21.29.29,0,0,1-.3-.18,2.48,2.48,0,0,1-.07-.77V43.47a2.62,2.62,0,0,1,.07-.82.34.34,0,0,1,.59,0,3.92,3.92,0,0,1,.06.93v.79h2.25V44a5.11,5.11,0,0,0-.2-1.62A1.92,1.92,0,0,0,160.65,41.43Zm-5,1.49a18.2,18.2,0,0,1,.06,1.87v1.48q0,1.3-.06,1.85a2.07,2.07,0,0,1-1.26,1.68,3.19,3.19,0,0,1-1.28.24,3.26,3.26,0,0,1-1.25-.23,2.08,2.08,0,0,1-1.29-1.67,18.18,18.18,0,0,1-.06-1.87V44.79q0-1.3.06-1.85a2.07,2.07,0,0,1,1.26-1.68,3.18,3.18,0,0,1,1.28-.24,3.25,3.25,0,0,1,1.25.23,2.08,2.08,0,0,1,1.29,1.67Zm-2.19.51a2.69,2.69,0,0,0-.07-.77.27.27,0,0,0-.28-.17.31.31,0,0,0-.27.14,1.94,1.94,0,0,0-.09.8v4a4,4,0,0,0,.06.93.27.27,0,0,0,.29.18.28.28,0,0,0,.29-.2,4.3,4.3,0,0,0,.06-1Zm32.32-2.22,1.29,8.66h-2.3l-.12-1.56h-.81l-.14,1.56h-2.33l1.15-8.66Zm-1.19,5.57q-.17-1.47-.34-3.64-.34,2.49-.43,3.64Zm52.22-5.57,1.29,8.66h-2.3l-.12-1.56h-.81l-.14,1.56h-2.33l1.15-8.66Zm-1.19,5.57q-.17-1.47-.34-3.64-.34,2.49-.43,3.64Zm11.78.81a3.23,3.23,0,0,1-.06.82.26.26,0,0,1-.27.17.24.24,0,0,1-.25-.16,2.56,2.56,0,0,1-.06-.72V41.2h-2.25v5.12q0,1.46.05,1.92a1.85,1.85,0,0,0,.35.87,2.07,2.07,0,0,0,.89.67,3.42,3.42,0,0,0,1.37.26,3.14,3.14,0,0,0,1.22-.22,2,2,0,0,0,.83-.64,1.88,1.88,0,0,0,.38-.82,10.1,10.1,0,0,0,.06-1.38V41.2h-2.25Zm12.88-6.18a3.61,3.61,0,0,0-2.94-.14,2.13,2.13,0,0,0-.88.68,2,2,0,0,0-.38.9,11.2,11.2,0,0,0-.06,1.4v2.53a7.65,7.65,0,0,0,.15,1.72,1.85,1.85,0,0,0,.66,1,2.6,2.6,0,0,0,1.42.5v.53h.14a.53.53,0,0,1,.33.09.32.32,0,0,1,.11.26.34.34,0,0,1-.08.24.32.32,0,0,1-.24.08.28.28,0,0,1-.27-.22h-.79a1,1,0,0,0,1.06.84,1.15,1.15,0,0,0,.79-.3.92.92,0,0,0,.33-.7.62.62,0,0,0-.24-.52.84.84,0,0,0-.53-.19V50a2.79,2.79,0,0,0,1.57-.52,2,2,0,0,0,.74-1,7.52,7.52,0,0,0,.15-1.79v-.34h-2.25v1.09a3.14,3.14,0,0,1-.08.91.32.32,0,0,1-.33.19.32.32,0,0,1-.34-.19,2.81,2.81,0,0,1-.07-.82v-4a3,3,0,0,1,.07-.86.33.33,0,0,1,.35-.2.31.31,0,0,1,.32.16,2.68,2.68,0,0,1,.07.82V45h2.25v-.82a5.77,5.77,0,0,0-.2-1.79A1.84,1.84,0,0,0,260.26,41.41Zm-5.87-.2,1.29,8.66h-2.3l-.12-1.56h-.81l-.14,1.56H250l1.15-8.66Zm-1.19,5.57q-.17-1.47-.34-3.64-.34,2.49-.43,3.64ZM266,41.2l1.29,8.66H265l-.12-1.56h-.81l-.14,1.56h-2.33l1.15-8.66Zm-1.19,5.57q-.17-1.47-.34-3.64-.34,2.49-.43,3.64Zm19.34-5.57-.52,4-.32-2.2q-.14-1.06-.27-1.84h-2.91v8.66h2V44.15l.83,5.71h1.4l.78-5.84v5.84h2V41.2Zm-6.32,5h1.41V44.58h-1.41V42.94h1.5V41.2h-3.75v8.66h3.9V48.13h-1.65Zm-5.08-3.3a18.2,18.2,0,0,1,.06,1.87v1.48q0,1.3-.06,1.85a2.07,2.07,0,0,1-1.26,1.68,3.19,3.19,0,0,1-1.28.24,3.26,3.26,0,0,1-1.25-.23,2.08,2.08,0,0,1-1.29-1.67,18.18,18.18,0,0,1-.06-1.87V44.79q0-1.3.06-1.85a2.07,2.07,0,0,1,1.26-1.68,3.18,3.18,0,0,1,1.28-.24,3.25,3.25,0,0,1,1.25.23,2.08,2.08,0,0,1,1.29,1.67Zm-2.19.51a2.69,2.69,0,0,0-.07-.77.27.27,0,0,0-.28-.17.31.31,0,0,0-.27.14,1.94,1.94,0,0,0-.09.8v4a4,4,0,0,0,.06.93.27.27,0,0,0,.29.18.28.28,0,0,0,.29-.2,4.3,4.3,0,0,0,.06-1Zm-39.79,1.91a1.69,1.69,0,0,1,.9.44,1.33,1.33,0,0,1,.29.51,8,8,0,0,1,.06,1.28v2.28h-2.09V47a2,2,0,0,0-.11-.86q-.11-.17-.57-.17v3.9H227V41.2h1.59a12.17,12.17,0,0,1,2.16.12,1.49,1.49,0,0,1,.92.63,2.85,2.85,0,0,1,.36,1.61,2.52,2.52,0,0,1-.25,1.36A1.32,1.32,0,0,1,230.79,45.34Zm-.85-2a.72.72,0,0,0-.15-.54.84.84,0,0,0-.54-.13v1.92a1,1,0,0,0,.53-.1c.1-.07.15-.29.15-.68Zm-23.28-.93a5.93,5.93,0,0,1,.09,1.2v.75a3.13,3.13,0,0,1-.17,1.21,1.17,1.17,0,0,1-.63.58,3,3,0,0,1-1.19.2h-.6v3.49h-2.25V41.2h2.27a5.32,5.32,0,0,1,1.41.14,1.58,1.58,0,0,1,.74.42A1.44,1.44,0,0,1,206.65,42.43Zm-1.79,1a.84.84,0,0,0-.14-.58.87.87,0,0,0-.58-.13v2.2h.17a.52.52,0,0,0,.43-.15,1.12,1.12,0,0,0,.12-.63Zm-7.2,2.83h1.41V44.58h-1.41V42.94h1.5V41.2h-3.75v8.66h3.9V48.13h-1.65Zm14.8-3.3a18.2,18.2,0,0,1,.06,1.87v1.48q0,1.3-.06,1.85a2.07,2.07,0,0,1-1.26,1.68,3.19,3.19,0,0,1-1.28.24,3.26,3.26,0,0,1-1.25-.23,2.08,2.08,0,0,1-1.29-1.67,18.18,18.18,0,0,1-.06-1.87V44.79q0-1.3.06-1.85a2.07,2.07,0,0,1,1.26-1.68,3.18,3.18,0,0,1,1.28-.24,3.25,3.25,0,0,1,1.25.23,2.08,2.08,0,0,1,1.29,1.67Zm-2.19.51a2.69,2.69,0,0,0-.07-.77.27.27,0,0,0-.28-.17.31.31,0,0,0-.27.14,1.94,1.94,0,0,0-.09.8v4a4,4,0,0,0,.06.93.27.27,0,0,0,.29.18.28.28,0,0,0,.29-.2,4.3,4.3,0,0,0,.06-1Zm-15.78-.82a11.53,11.53,0,0,1,.07,1.65v3a7.06,7.06,0,0,1-.11,1.56,1.17,1.17,0,0,1-.38.61,1.59,1.59,0,0,1-.67.31,6.06,6.06,0,0,1-1.21.09h-2.84V41.2H191a10.48,10.48,0,0,1,2.21.15,1.69,1.69,0,0,1,.87.49A1.56,1.56,0,0,1,194.5,42.61Zm-2.18,1.15a4.54,4.54,0,0,0,0-.75.36.36,0,0,0-.17-.24,1.11,1.11,0,0,0-.5-.08v5.69q.49,0,.6-.2a2.86,2.86,0,0,0,.11-1.06Zm51.27-1.15a11.53,11.53,0,0,1,.07,1.65v3a7.06,7.06,0,0,1-.11,1.56,1.17,1.17,0,0,1-.38.61,1.59,1.59,0,0,1-.67.31,6.06,6.06,0,0,1-1.21.09h-2.84V41.2h1.68a10.48,10.48,0,0,1,2.21.15,1.69,1.69,0,0,1,.87.49A1.56,1.56,0,0,1,243.59,42.61Zm-2.18,1.15a4.54,4.54,0,0,0,0-.75.36.36,0,0,0-.17-.24,1.11,1.11,0,0,0-.5-.08v5.69q.49,0,.6-.2a2.86,2.86,0,0,0,.11-1.06Zm-16.34-2.33a3.06,3.06,0,0,0-1.64-.41,2.69,2.69,0,0,0-1.64.47,1.85,1.85,0,0,0-.77,1,8.63,8.63,0,0,0-.13,1.8v2.57a10.2,10.2,0,0,0,.06,1.34,2.15,2.15,0,0,0,.32.85,2,2,0,0,0,.75.68,2.15,2.15,0,0,0,1.06.28,1.64,1.64,0,0,0,.83-.2,1.58,1.58,0,0,0,.58-.6l.21.62h1.41V45.21h-2.64v1.32h.45v1a2.44,2.44,0,0,1-.09.81.33.33,0,0,1-.33.21.29.29,0,0,1-.3-.18,2.48,2.48,0,0,1-.07-.77V43.47a2.62,2.62,0,0,1,.07-.82.34.34,0,0,1,.59,0,3.92,3.92,0,0,1,.06.93v.79h2.25V44a5.11,5.11,0,0,0-.2-1.62A1.92,1.92,0,0,0,225.08,41.43Zm-9,2.91a1.7,1.7,0,0,1-.64-.53,1.43,1.43,0,0,1-.12-.65,1,1,0,0,1,.1-.5.34.34,0,0,1,.31-.17.29.29,0,0,1,.27.12,1.26,1.26,0,0,1,.08.57v.64h2.09v-.34a3.79,3.79,0,0,0-.2-1.46,1.57,1.57,0,0,0-.82-.71,3.56,3.56,0,0,0-1.49-.28,3.27,3.27,0,0,0-1.37.26,1.71,1.71,0,0,0-.82.72,3.14,3.14,0,0,0-.25,1.45,3.06,3.06,0,0,0,.18,1.13,1.89,1.89,0,0,0,.45.7,10.41,10.41,0,0,0,1.11.81,6.66,6.66,0,0,1,1.05.79,1.62,1.62,0,0,1,.21,1,1,1,0,0,1-.11.52.37.37,0,0,1-.33.18.34.34,0,0,1-.31-.14,1.38,1.38,0,0,1-.09-.63V46.76h-2.09v.57a4.47,4.47,0,0,0,.2,1.5,1.68,1.68,0,0,0,.84.87,3.23,3.23,0,0,0,1.54.34,3.31,3.31,0,0,0,1.44-.3,1.7,1.7,0,0,0,.84-.74,3.23,3.23,0,0,0,.22-1.36,3.36,3.36,0,0,0-.39-1.84A6.42,6.42,0,0,0,216,44.34Z" fill="#951b1e"/><path d="M185.65,64.54V70.1h-5.83V64q0-.73-.95-.73t-.95.73V84.82q0,.73.95.73t.95-.73v-5.6h-1.3v-4.6h7.13V89.46h-3.08l-.84-1.65a6.6,6.6,0,0,1-4.48,1.92,6.78,6.78,0,0,1-4-1.22,4.44,4.44,0,0,1-1.72-3.9V65.06q0-5.83,7.26-5.83Q185.65,59.23,185.65,64.54ZM169.37,65V84.3a4.61,4.61,0,0,1-2,4,9.06,9.06,0,0,1-5.28,1.41q-7.33,0-7.33-5.39V65.06q0-5.83,7.37-5.83T169.37,65Zm-6.26-.77q0-.9-1-.9t-1.08.9V84.65q0,.9,1.08.9t1-.9Zm-17.2-5q-7.42,0-7.42,5.83V84.34q0,5.39,7.42,5.39a8.46,8.46,0,0,0,4.61-1.28,3.89,3.89,0,0,0,2-3.42v-7.6h-5.83v7.39q0,.73-.89.73t-.93-.73V64q0-.73.93-.73t.89.73V70h5.83V64.54Q152.55,59.23,145.91,59.23Zm91.26-2.3a7.36,7.36,0,0,1,2.38.61,7.52,7.52,0,0,0,2.41.61,4.1,4.1,0,0,0,3.46-1.58,5.46,5.46,0,0,0,1.21-3.39h-3.77q0,1.11-.75,1.11a7.07,7.07,0,0,1-2.2-.54,6.7,6.7,0,0,0-2.18-.56q-5,0-5,5h3.77Q236.49,56.94,237.16,56.94ZM198.82,73.17,195.15,59.5h-7.3v30h5.36v-16l4.36,16h6.6v-30h-5.36Zm83,12.45V75.09h5.46V71.45h-5.46v-8.1h6.05V59.5H275.4v30H288V85.61ZM264.93,65V84.3a4.61,4.61,0,0,1-2,4,9.06,9.06,0,0,1-5.28,1.41q-7.33,0-7.33-5.39V65.06q0-5.83,7.37-5.83T264.93,65Zm-6.26-.77q0-.9-1-.9t-1.08.9V84.65q0,.9,1.08.9t1-.9ZM206.32,89.46h6.42v-30h-6.42Zm37.36-30,4.81,30h-6.36l-1.08-8H238.2l-1.1,8h-6.36l4.8-30Zm-3.15,17.75-.92-8.94-.87,8.94Zm-18.27-18q-7.42,0-7.42,5.83V84.34q0,4.85,6,5.33v1.71l.7-.23q.87,0,.87.92a.82.82,0,0,1-.92.94,1.49,1.49,0,0,1-.8-.33l-.8,1.19a2.22,2.22,0,0,0,1.71.73q3.32,0,3.32-2.36A2,2,0,0,0,223.22,90v-.35a8.28,8.28,0,0,0,3.65-1.22,3.89,3.89,0,0,0,2-3.42v-7.6h-5.83v7.39q0,.73-.89.73t-.93-.73V64q0-.73.93-.73t.89.73V70h5.83V64.54Q228.91,59.23,222.26,59.23ZM187.15,99.12q-7.26,0-7.26,5.83V124.5a4.44,4.44,0,0,0,1.72,3.9,6.78,6.78,0,0,0,4,1.22,6.6,6.6,0,0,0,4.48-1.92l.84,1.65H194V114.52h-7.13v4.6h1.3v5.6q0,.73-.95.73t-.95-.73V103.93q0-.73.95-.73t.95.73V110H194v-5.56Q194,99.12,187.15,99.12Zm-15,13.93-3.67-13.66h-7.3v30h5.36v-16l4.36,16h6.6v-30H172.1Zm-19.76,16.29h6.42v-30h-6.42Zm-7.61-30h-6.42v30h12V125.5h-5.63Zm133.62,0-2.55,15.54-2.94-15.54h-8.26v30h5V112.53l3.83,16.81h4.42l3.34-16.81v16.81H287v-30Zm-22,15.58h5.46v-3.63h-5.46v-8.1h6.05V99.39H249.9v30h12.56V125.5h-6.14ZM240.56,99.12q-7.26,0-7.26,5.83V124.5a4.44,4.44,0,0,0,1.72,3.9,6.78,6.78,0,0,0,4,1.22,6.6,6.6,0,0,0,4.48-1.92l.84,1.65h3.08V114.52h-7.13v4.6h1.3v5.6q0,.73-.95.73t-.95-.73V103.93q0-.73.95-.73t.95.73V110h5.83v-5.56Q247.45,99.12,240.56,99.12ZM205,124.54q0,.9-1.06.9t-1.08-.9V99.39h-6.42v24.84a4.38,4.38,0,0,0,2.23,4.12,10.45,10.45,0,0,0,5.27,1.27,9.41,9.41,0,0,0,5.38-1.42,4.56,4.56,0,0,0,2.1-4V99.39H205Zm21.43-25.15,4.81,30h-6.36l-1.08-8H221l-1.1,8H213.5l4.8-30Zm-3.15,17.75-.92-8.94-.87,8.94Z" fill="#951b1e"/><path d="M119.43,24.28C109.59,12,96.89,4.11,80.94.4c1.61,4.86,4.64,8.27,6.26,12.3v9c5,7.89,11.48,14.09,15,22-1.87,4.54-6.66,4.53-9.35,6.8-2.48,4.74,3.65,9.26-.54,13.47,1.37,1.74,4.23,3.2,2.48,6.56-.58,1.56-2.78,1.61-3.2,4.18C91.36,78,93.16,81.4,93.48,85c.3,3.32-.6,5.85-3.66,7.5a27.41,27.41,0,0,1-7.32,3c-7.13,1.5-17.63-.28-20.63,3.31a17.77,17.77,0,0,0-4.76,9.39c-.73,4.94-.58,20-.73,23.65,35.4,6,74.83-18,77.54-63.67C134.89,52,129.68,37.1,119.43,24.28Z" fill="#951b1e"/><path d="M38.71,113.55v1H20.49l-1-1Zm-16,3,1.16,1H38.71v-1Zm-6-6,.91,1H38.71v-1ZM56.72.48,56.34,0,56,0c-.76.13-1.51.28-2.26.43ZM30.62,122.55q.79.51,1.6,1h6.13l.1-1Zm-22.39-24c.18.33.36.67.55,1H39.73c.14-.34.27-.68.44-1Zm1.74,3c.21.34.43.67.64,1H38.88c.06-.34.12-.68.19-1Zm2,3c.23.33.46.67.7,1H38.7v-1Zm23.8,21c.53.28,1.07.56,1.61.83l.34.17H38l.07-.55.05-.45Zm-21.59-18,.8,1H38.7v-1ZM.09,69.55h79a2.27,2.27,0,0,0-.31-1H0C.05,68.88.07,69.21.09,69.55Zm0-7c0,.33,0,.67,0,1H78.31a2.81,2.81,0,0,0,.17-.59,3.23,3.23,0,0,0,0-.41Zm27.58,58h11c0-.43.06-.7.06-.71v-.29H26.35Zm-13.26-96H68.75a3.48,3.48,0,0,0-1.18-1H15.24Zm5.35-6H65.2c0-.36,0-.59,0-.61s0-.26,0-.39H20.83C20.48,17.88,20.12,18.21,19.77,18.55Zm16.55-12H61.46c-.2-.32-.33-.52-.36-.56l-.35-.44H38.37C37.68,5.87,37,6.2,36.32,6.55Zm-27.89,27h62.2l-.39-.42c-.17-.18-.33-.38-.49-.58H9C8.8,32.88,8.62,33.21,8.43,33.55Zm-1.76,62c.16.34.34.67.5,1H41.56a10.43,10.43,0,0,1,1-1Zm-1.35-3c.14.33.28.67.42,1h40c.17-.07.33-.16.5-.23a15.73,15.73,0,0,1,2.86-.77Zm-1.19-3c.12.34.25.67.38,1h68.8a8.18,8.18,0,0,0,1.33-1Zm-3.92-18c0,.33.06.67.09,1h75a2.88,2.88,0,0,1,.49-.61,8.85,8.85,0,0,0,1.6-.39Zm1.63-21c-.08.33-.16.67-.23,1H78.95l.42-.37a7.84,7.84,0,0,0,.66-.63Zm16-30c-.3.33-.59.67-.89,1H65.39c0-.35-.08-.69-.1-1Zm-4.93,6c-.24.33-.49.66-.73,1H68.91c.08-.34.14-.68.18-1Zm55.59,3H10.83c-.21.33-.42.67-.63,1H68.49A3.64,3.64,0,0,1,68.5,29.55Zm-62.57,9c-.15.33-.3.66-.45,1H76.19l-.93-1Zm1.44-3-.5,1H73.4l-.93-1Zm-2.7,6c-.13.33-.27.66-.4,1H79l-.95-1Zm41.27-39q-1.43.47-2.83,1h16l-.79-1Zm-21.75,12c-.39.33-.77.67-1.16,1h41.9q-.09-.51-.2-1Zm8.54-6c-.56.33-1.11.66-1.66,1H63c-.16-.36-.32-.69-.48-1Zm-4.62,3-1.37,1H64.19q-.16-.51-.34-1ZM.7,56.55c0,.33-.09.67-.14,1H76.43a5.8,5.8,0,0,1-.26-1Zm76.36,9H0c0,.23,0,.45,0,.68s0,.21,0,.32H77.25A2.07,2.07,0,0,1,77.06,65.55Zm-76.54,9c0,.33.08.67.12,1h74.2a5.39,5.39,0,0,1-.1-1Zm.43,3q.08.5.18,1H76.06c-.21-.35-.38-.68-.54-1Zm.57,3c.07.33.15.67.23,1H77.1c0-.38-.1-.71-.16-1Zm.73,3c.09.33.17.67.27,1H77.11c0-.34.07-.67.08-1Zm.87,3,.32,1H76.18a8,8,0,0,0,.44-1Zm-2.78-27c0,.33-.06.67-.09,1H78.12a9.19,9.19,0,0,0-.46-1Zm.86-6c-.06.33-.13.67-.18,1H76.49a6,6,0,0,1,.59-1Zm1.43-6c-.1.33-.2.66-.29,1H81.25a4.29,4.29,0,0,0,.2-1Zm.94-3c-.11.33-.24.66-.34,1H81.15a6.11,6.11,0,0,0-.49-1Z" fill="url(#a)"/></svg>
