<svg xmlns="http://www.w3.org/2000/svg" viewBox="0 0 638.62 130.43"><defs><style>.cls-1{fill:#5f605f;}.cls-2{fill:#959d38;}.cls-3{fill:#086c73;}.cls-4{fill:#1b9899;}</style></defs><title>Redentor</title><g id="Camada_2" data-name="Camada 2"><g id="Camada_1-2" data-name="Camada 1"><path class="cls-1" d="M210,121.31a12.32,12.32,0,0,1-4.77-.92,11,11,0,0,1-3.84-2.69,12.59,12.59,0,0,1-2.56-4.35,17.18,17.18,0,0,1-.94-5.92,16.25,16.25,0,0,1,1-5.92,13,13,0,0,1,2.71-4.35,11,11,0,0,1,3.91-2.67,12.2,12.2,0,0,1,4.63-.9,18.87,18.87,0,0,1,2.73.19,15.63,15.63,0,0,1,2.14.48,14.1,14.1,0,0,1,1.57.58,6.91,6.91,0,0,1,1,.51l-.84,2.27a14.51,14.51,0,0,0-2.44-1.13,11.93,11.93,0,0,0-8,.28,8.66,8.66,0,0,0-3.12,2.38,10.19,10.19,0,0,0-1.9,3.64,16.35,16.35,0,0,0-.63,4.68,16.8,16.8,0,0,0,.63,4.77,10.09,10.09,0,0,0,1.86,3.62,8.11,8.11,0,0,0,3,2.3,9.77,9.77,0,0,0,4.08.81,15.92,15.92,0,0,0,4.24-.48,12.21,12.21,0,0,0,2.58-1l.73,2.22a4,4,0,0,1-.92.44,15.79,15.79,0,0,1-1.65.52,16.85,16.85,0,0,1-2.3.44A21.42,21.42,0,0,1,210,121.31Z"/><path class="cls-1" d="M224.07,110.8a12.52,12.52,0,0,1,.75-4.54,10.14,10.14,0,0,1,2-3.24,7.73,7.73,0,0,1,2.76-1.93,8.27,8.27,0,0,1,3.2-.64,7.49,7.49,0,0,1,5.81,2.38c1.44,1.58,2.17,4,2.17,7.32,0,.21,0,.41,0,.61s0,.4-.06.58H226.72a8.71,8.71,0,0,0,1.8,5.6q1.68,1.95,5.36,2a11,11,0,0,0,3.22-.38,15.64,15.64,0,0,0,1.73-.65l.46,2.14a10,10,0,0,1-2,.73,12.78,12.78,0,0,1-3.47.42,11.6,11.6,0,0,1-4.45-.76,8,8,0,0,1-3-2.15,8.38,8.38,0,0,1-1.72-3.28A15.13,15.13,0,0,1,224.07,110.8Zm14.07-1.57a7.86,7.86,0,0,0-1.46-4.83,4.71,4.71,0,0,0-3.91-1.72,5.28,5.28,0,0,0-2.39.53,6,6,0,0,0-1.84,1.44,6.52,6.52,0,0,0-1.23,2.09,8.63,8.63,0,0,0-.52,2.49Z"/><path class="cls-1" d="M249.33,101.6c.74-.2,1.74-.43,3-.69a23.92,23.92,0,0,1,4.6-.38,9.67,9.67,0,0,1,3.78.65,5.87,5.87,0,0,1,2.41,1.86,7.72,7.72,0,0,1,1.29,2.89,17.22,17.22,0,0,1,.38,3.72v11.08h-2.49V110.46a18.9,18.9,0,0,0-.29-3.57,5.84,5.84,0,0,0-1-2.37,3.7,3.7,0,0,0-1.76-1.33,8.22,8.22,0,0,0-2.74-.4,22.18,22.18,0,0,0-3.05.19,9.67,9.67,0,0,0-1.67.35v17.4h-2.49Z"/><path class="cls-1" d="M276.55,100.91h7.89V103h-7.89v10.54a10.78,10.78,0,0,0,.28,2.74,3.84,3.84,0,0,0,.83,1.63,2.59,2.59,0,0,0,1.3.77,6.89,6.89,0,0,0,1.69.19,7.34,7.34,0,0,0,2.53-.36,11.94,11.94,0,0,0,1.49-.67l.62,2.07a9,9,0,0,1-1.88.78,9.15,9.15,0,0,1-2.91.44,8.64,8.64,0,0,1-3.09-.48,4.41,4.41,0,0,1-2-1.45,6.12,6.12,0,0,1-1.06-2.44,17.3,17.3,0,0,1-.3-3.45V95.09l2.49-.46Z"/><path class="cls-1" d="M298.86,100.53a13.29,13.29,0,0,1,2.32.19,7.94,7.94,0,0,1,1.51.38l-.5,2.15a5.43,5.43,0,0,0-1.24-.32,13.78,13.78,0,0,0-2.48-.18,11.85,11.85,0,0,0-2.58.23,6.92,6.92,0,0,0-1.29.39v17.36h-2.49v-18.9a18.21,18.21,0,0,1,2.64-.86A16.73,16.73,0,0,1,298.86,100.53Z"/><path class="cls-1" d="M326.42,110.84a13,13,0,0,1-.67,4.26,9.61,9.61,0,0,1-1.88,3.25,8.42,8.42,0,0,1-2.86,2.09,9.21,9.21,0,0,1-7.28,0,8.42,8.42,0,0,1-2.86-2.09A9.43,9.43,0,0,1,309,115.1a13.65,13.65,0,0,1,0-8.51,9.67,9.67,0,0,1,1.87-3.28,8.48,8.48,0,0,1,2.86-2.11,9.21,9.21,0,0,1,7.28,0,8.48,8.48,0,0,1,2.86,2.11,9.85,9.85,0,0,1,1.88,3.28A12.93,12.93,0,0,1,326.42,110.84Zm-2.65,0a9.35,9.35,0,0,0-1.72-5.92,6.06,6.06,0,0,0-9.36,0,9.35,9.35,0,0,0-1.72,5.92,9.25,9.25,0,0,0,1.72,5.9,6.1,6.1,0,0,0,9.36,0A9.25,9.25,0,0,0,323.77,110.84Z"/><path class="cls-1" d="M356.43,121.31a11.24,11.24,0,0,1-4.5-.81,7.79,7.79,0,0,1-3-2.22,9,9,0,0,1-1.67-3.32,15.61,15.61,0,0,1-.52-4.08V94.17h2.61v16.36a12.11,12.11,0,0,0,.52,3.78,7.28,7.28,0,0,0,1.43,2.63,5.64,5.64,0,0,0,2.23,1.53,8.72,8.72,0,0,0,5.82,0,5.64,5.64,0,0,0,2.23-1.53,7.44,7.44,0,0,0,1.44-2.63,12.44,12.44,0,0,0,.51-3.78V94.17h2.61v16.71a15.2,15.2,0,0,1-.52,4.08,8.82,8.82,0,0,1-1.67,3.32,7.83,7.83,0,0,1-3,2.22A11.29,11.29,0,0,1,356.43,121.31Z"/><path class="cls-1" d="M375.83,101.6c.74-.2,1.74-.43,3-.69a23.85,23.85,0,0,1,4.6-.38,9.66,9.66,0,0,1,3.77.65,5.9,5.9,0,0,1,2.42,1.86,7.55,7.55,0,0,1,1.28,2.89,16.59,16.59,0,0,1,.39,3.72v11.08h-2.5V110.46a19,19,0,0,0-.28-3.57,6,6,0,0,0-1-2.37,3.73,3.73,0,0,0-1.77-1.33,8.18,8.18,0,0,0-2.74-.4,22,22,0,0,0-3,.19,9.44,9.44,0,0,0-1.67.35v17.4h-2.49Z"/><path class="cls-1" d="M403.77,94.93a1.84,1.84,0,0,1-.54,1.4,1.88,1.88,0,0,1-2.6,0,1.84,1.84,0,0,1-.54-1.4,1.87,1.87,0,0,1,.54-1.4,1.91,1.91,0,0,1,2.6,0A1.87,1.87,0,0,1,403.77,94.93Zm-.57,25.8h-2.5V100.91h2.5Z"/><path class="cls-1" d="M418.86,118.05q.79-1.65,1.65-3.78c.56-1.42,1.11-2.89,1.63-4.41s1-3,1.46-4.6.83-3,1.14-4.35h2.49c-.46,1.82-1,3.61-1.54,5.37s-1.17,3.49-1.8,5.17-1.28,3.31-2,4.87-1.35,3-2,4.41h-2.32q-1-2.07-2-4.41t-1.95-4.87c-.63-1.68-1.23-3.41-1.79-5.17s-1.08-3.55-1.54-5.37H413q.46,2,1.14,4.35t1.46,4.6c.52,1.52,1.07,3,1.63,4.41S418.32,117,418.86,118.05Z"/><path class="cls-1" d="M433.13,110.8a12.52,12.52,0,0,1,.75-4.54,10,10,0,0,1,2-3.24,7.56,7.56,0,0,1,2.76-1.93,8.24,8.24,0,0,1,3.2-.64,7.48,7.48,0,0,1,5.8,2.38q2.17,2.37,2.17,7.32c0,.21,0,.41,0,.61a4.93,4.93,0,0,1-.06.58H435.78a8.83,8.83,0,0,0,1.8,5.6c1.13,1.3,2.91,2,5.37,2a11.11,11.11,0,0,0,3.22-.38,16.11,16.11,0,0,0,1.72-.65l.46,2.14a10,10,0,0,1-2,.73,12.73,12.73,0,0,1-3.47.42,11.6,11.6,0,0,1-4.45-.76,8.07,8.07,0,0,1-3-2.15,8.4,8.4,0,0,1-1.73-3.28A15.13,15.13,0,0,1,433.13,110.8Zm14.07-1.57a7.86,7.86,0,0,0-1.45-4.83,4.72,4.72,0,0,0-3.91-1.72,5.3,5.3,0,0,0-2.4.53,6.12,6.12,0,0,0-1.84,1.44,6.91,6.91,0,0,0-1.23,2.09,8.62,8.62,0,0,0-.51,2.49Z"/><path class="cls-1" d="M465.14,100.53a13.21,13.21,0,0,1,2.32.19,7.73,7.73,0,0,1,1.51.38l-.49,2.15a5.56,5.56,0,0,0-1.25-.32,13.66,13.66,0,0,0-2.47-.18,11.89,11.89,0,0,0-2.59.23,6.73,6.73,0,0,0-1.28.39v17.36H458.4v-18.9A17.8,17.8,0,0,1,461,101,16.59,16.59,0,0,1,465.14,100.53Z"/><path class="cls-1" d="M479.86,119a7.9,7.9,0,0,0,3.55-.71,2.48,2.48,0,0,0,1.4-2.4,3.62,3.62,0,0,0-.25-1.38,2.67,2.67,0,0,0-.83-1,6.69,6.69,0,0,0-1.51-.88c-.63-.29-1.4-.62-2.32-1-.74-.31-1.44-.62-2.11-.94a8.79,8.79,0,0,1-1.76-1.11A4.91,4.91,0,0,1,474.8,108a4.51,4.51,0,0,1-.46-2.14,4.82,4.82,0,0,1,1.82-3.91,7.66,7.66,0,0,1,5-1.5,13.54,13.54,0,0,1,3.35.35,10.75,10.75,0,0,1,1.86.61l-.58,2.22a16.13,16.13,0,0,0-1.55-.61,10.41,10.41,0,0,0-3.2-.38,7.38,7.38,0,0,0-1.59.17,4.36,4.36,0,0,0-1.32.54,2.79,2.79,0,0,0-.92.92,2.55,2.55,0,0,0-.35,1.36,2.88,2.88,0,0,0,.31,1.39,3,3,0,0,0,.9,1,7.59,7.59,0,0,0,1.46.83l2,.84c.77.3,1.5.61,2.2.93a7.8,7.8,0,0,1,1.86,1.15,5.39,5.39,0,0,1,1.31,1.61,5,5,0,0,1,.49,2.36,4.61,4.61,0,0,1-2,4.06,9.58,9.58,0,0,1-5.5,1.38,13.85,13.85,0,0,1-4-.44,15,15,0,0,1-1.84-.67l.65-2.26a4.83,4.83,0,0,0,.49.25c.26.11.61.24,1,.38a10.86,10.86,0,0,0,1.55.36A11.77,11.77,0,0,0,479.86,119Z"/><path class="cls-1" d="M498.34,94.93a1.84,1.84,0,0,1-.54,1.4,1.79,1.79,0,0,1-1.3.52,1.81,1.81,0,0,1-1.31-.52,1.87,1.87,0,0,1-.53-1.4,1.9,1.9,0,0,1,.53-1.4A1.84,1.84,0,0,1,496.5,93a1.82,1.82,0,0,1,1.3.51A1.87,1.87,0,0,1,498.34,94.93Zm-.58,25.8h-2.49V100.91h2.49Z"/><path class="cls-1" d="M509.76,100.91h7.9V103h-7.9v10.54a10.72,10.72,0,0,0,.29,2.74,3.72,3.72,0,0,0,.82,1.63,2.58,2.58,0,0,0,1.31.77,6.8,6.8,0,0,0,1.68.19,7.34,7.34,0,0,0,2.53-.36,12.93,12.93,0,0,0,1.5-.67l.61,2.07a8.81,8.81,0,0,1-1.88.78,9.06,9.06,0,0,1-2.91.44,8.64,8.64,0,0,1-3.09-.48,4.47,4.47,0,0,1-2-1.45,6,6,0,0,1-1.05-2.44,16.53,16.53,0,0,1-.31-3.45V95.09l2.49-.46Z"/><path class="cls-1" d="M531.34,100.45a8.79,8.79,0,0,1,3.32.56,5.72,5.72,0,0,1,2.2,1.53,6.16,6.16,0,0,1,1.23,2.32,10.83,10.83,0,0,1,.38,2.91v12.5a9.81,9.81,0,0,1-1.11.25l-1.69.29c-.64.1-1.34.18-2.12.25s-1.58.09-2.4.09a11.4,11.4,0,0,1-2.89-.34,6.45,6.45,0,0,1-2.3-1.09,5.11,5.11,0,0,1-1.54-1.92,6.63,6.63,0,0,1-.55-2.86,5.8,5.8,0,0,1,.61-2.76,5.24,5.24,0,0,1,1.73-1.9,7.88,7.88,0,0,1,2.64-1.09,15.17,15.17,0,0,1,3.34-.34c.35,0,.73,0,1.13.06s.78.09,1.15.15.69.13.95.19a2.75,2.75,0,0,1,.56.17V108.2a13.43,13.43,0,0,0-.15-2,4.57,4.57,0,0,0-.67-1.76,3.77,3.77,0,0,0-1.46-1.26,5.46,5.46,0,0,0-2.47-.48,13,13,0,0,0-3.26.3c-.72.21-1.24.37-1.57.5l-.35-2.18a9.14,9.14,0,0,1,2-.58A17.14,17.14,0,0,1,531.34,100.45Zm.23,18.48c1,0,1.82,0,2.55-.1a14.8,14.8,0,0,0,1.86-.25v-7a8.22,8.22,0,0,0-1.34-.41,11.92,11.92,0,0,0-2.53-.21,14.47,14.47,0,0,0-1.92.14,5.65,5.65,0,0,0-1.84.57,3.93,3.93,0,0,0-1.38,1.21,3.46,3.46,0,0,0-.53,2,4.41,4.41,0,0,0,.36,1.88,3.1,3.1,0,0,0,1,1.23,4.79,4.79,0,0,0,1.61.67A9.85,9.85,0,0,0,531.57,118.93Zm5.68-25.88-6.56,5.33-1.26-1.45,6.05-5.83Z"/><path class="cls-1" d="M554.65,100.53a13.21,13.21,0,0,1,2.32.19,7.73,7.73,0,0,1,1.51.38l-.5,2.15a5.43,5.43,0,0,0-1.24-.32,13.7,13.7,0,0,0-2.48-.18,11.85,11.85,0,0,0-2.58.23,7.19,7.19,0,0,0-1.29.39v17.36H547.9v-18.9a18,18,0,0,1,2.65-.86A16.59,16.59,0,0,1,554.65,100.53Z"/><path class="cls-1" d="M568.37,94.93a1.84,1.84,0,0,1-.54,1.4,1.89,1.89,0,0,1-2.6,0,1.84,1.84,0,0,1-.54-1.4,1.87,1.87,0,0,1,.54-1.4,1.91,1.91,0,0,1,2.6,0A1.87,1.87,0,0,1,568.37,94.93Zm-.57,25.8h-2.5V100.91h2.5Z"/><path class="cls-1" d="M594.36,110.84a12.78,12.78,0,0,1-.67,4.26,9.45,9.45,0,0,1-1.88,3.25,8.39,8.39,0,0,1-2.85,2.09,9.23,9.23,0,0,1-7.29,0,8.29,8.29,0,0,1-2.85-2.09,9.45,9.45,0,0,1-1.88-3.25,13.85,13.85,0,0,1,0-8.51,9.68,9.68,0,0,1,1.88-3.28,8.35,8.35,0,0,1,2.85-2.11,9.23,9.23,0,0,1,7.29,0,8.44,8.44,0,0,1,2.85,2.11,9.68,9.68,0,0,1,1.88,3.28A12.68,12.68,0,0,1,594.36,110.84Zm-2.64,0a9.35,9.35,0,0,0-1.73-5.92,6,6,0,0,0-9.35,0,9.35,9.35,0,0,0-1.73,5.92,9.25,9.25,0,0,0,1.73,5.9,6.08,6.08,0,0,0,9.35,0A9.25,9.25,0,0,0,591.72,110.84Z"/><path class="cls-2" d="M174.08,65.18a23.8,23.8,0,0,1-8.91-1.5,16.46,16.46,0,0,1-6.18-4.2,17.09,17.09,0,0,1-3.62-6.37,26.2,26.2,0,0,1-1.17-8V13.42h9.28V44.2a19.82,19.82,0,0,0,.77,5.88,10.22,10.22,0,0,0,2.19,4,8.82,8.82,0,0,0,3.37,2.27,12.18,12.18,0,0,0,4.35.73,12.42,12.42,0,0,0,4.38-.73,8.63,8.63,0,0,0,3.4-2.27,10.23,10.23,0,0,0,2.2-4,19.85,19.85,0,0,0,.76-5.88V13.42h9.29V45.07a25.31,25.31,0,0,1-1.21,8,17.58,17.58,0,0,1-3.65,6.37,16.49,16.49,0,0,1-6.25,4.2A24.52,24.52,0,0,1,174.08,65.18Z"/><path class="cls-2" d="M205.52,27.09a59.05,59.05,0,0,1,6.65-1.39,57.2,57.2,0,0,1,9.07-.66,20.87,20.87,0,0,1,7.82,1.28,12.18,12.18,0,0,1,5,3.58,13.73,13.73,0,0,1,2.63,5.56,31.11,31.11,0,0,1,.77,7.13V64.08h-8.85V44a28.9,28.9,0,0,0-.4-5.23,9.43,9.43,0,0,0-1.31-3.51,5.24,5.24,0,0,0-2.49-2,10.36,10.36,0,0,0-3.84-.63,30.9,30.9,0,0,0-3.51.22c-1.22.15-2.12.27-2.7.37V64.08h-8.85Z"/><path class="cls-2" d="M258.16,14.66a5.09,5.09,0,0,1-1.61,3.95,5.48,5.48,0,0,1-3.8,1.46,5.61,5.61,0,0,1-3.88-1.46,5.08,5.08,0,0,1-1.6-3.95,5.15,5.15,0,0,1,1.6-4,5.56,5.56,0,0,1,3.88-1.46,5.44,5.44,0,0,1,3.8,1.46A5.15,5.15,0,0,1,258.16,14.66Zm-1,49.42h-8.85V25.84h8.85Z"/><path class="cls-3" d="M282.87,12.9q11,0,16.78,4t5.81,12.28q0,10.31-10.16,14,1.38,1.68,3.14,4.1c1.17,1.6,2.37,3.35,3.58,5.22s2.39,3.8,3.51,5.78,2.12,3.91,3,5.81H298.22q-1.38-2.62-3-5.3c-1.08-1.78-2.16-3.51-3.26-5.19s-2.18-3.27-3.25-4.75-2.07-2.82-3-4c-.68,0-1.27.08-1.75.08h-5.85V64.08h-9.21V14.15a48.86,48.86,0,0,1,7.16-1Q279.87,12.91,282.87,12.9Zm.66,8c-1.95,0-3.76.08-5.41.22V37.47h4a41.38,41.38,0,0,0,5.92-.37,12.48,12.48,0,0,0,4.28-1.31,6.45,6.45,0,0,0,2.59-2.56,8.44,8.44,0,0,0,.88-4.1,8.08,8.08,0,0,0-.88-3.94,6.4,6.4,0,0,0-2.52-2.56,11.64,11.64,0,0,0-3.91-1.35A28.31,28.31,0,0,0,283.53,20.87Z"/><path class="cls-3" d="M315.7,64.08V13.42h32.53v7.82H324.91v12.5h20.76v7.68H324.91V56.26H350v7.82Z"/><path class="cls-3" d="M401.53,38.71a29.4,29.4,0,0,1-2,11.44,21.65,21.65,0,0,1-5.81,8.12,24.08,24.08,0,0,1-9.07,4.82,41,41,0,0,1-11.73,1.58q-3.08,0-6.95-.26a46.34,46.34,0,0,1-7.38-1.06V14.15a44.29,44.29,0,0,1,7.46-1c2.63-.14,5-.22,7-.22a42.38,42.38,0,0,1,11.63,1.5,24,24,0,0,1,9,4.68,21,21,0,0,1,5.81,8A29.9,29.9,0,0,1,401.53,38.71ZM367.75,56.48c.54.05,1.24.08,2.12.11s2.07,0,3.58,0q9.29,0,13.86-4.71c3-3.15,4.57-7.54,4.57-13.2s-1.49-10.16-4.46-13.23-7.58-4.61-13.82-4.61a55.3,55.3,0,0,0-5.85.22Z"/><path class="cls-3" d="M409.42,64.08V13.42H442v7.82H418.63v12.5H439.4v7.68H418.63V56.26h25.08v7.82Z"/><path class="cls-3" d="M486.41,64.08q-2.49-4.17-5.56-8.95c-2.05-3.2-4.17-6.41-6.36-9.66s-4.42-6.38-6.69-9.43-4.42-5.78-6.47-8.22V64.08h-9.07V13.42h7.53q2.93,3.06,6.29,7.27t6.76,8.74q3.41,4.53,6.58,9.1c2.13,3,4,5.88,5.67,8.52V13.42h9.14V64.08Z"/><path class="cls-3" d="M540.21,13.42v8H524.64v42.7h-9.28V21.38H499.79v-8Z"/><path class="cls-3" d="M590.37,38.71a31.49,31.49,0,0,1-1.94,11.48,23.74,23.74,0,0,1-5.26,8.3,21.74,21.74,0,0,1-7.79,5,27.81,27.81,0,0,1-19,0,21.64,21.64,0,0,1-7.83-5,24.41,24.41,0,0,1-5.3-8.3,31.06,31.06,0,0,1-2-11.48,30.77,30.77,0,0,1,2-11.44,24.07,24.07,0,0,1,5.38-8.3,22.08,22.08,0,0,1,7.86-5,27.31,27.31,0,0,1,18.86,0,21.42,21.42,0,0,1,7.78,5,24.67,24.67,0,0,1,5.31,8.3A30.77,30.77,0,0,1,590.37,38.71Zm-39.55,0a26.31,26.31,0,0,0,1,7.57,16.48,16.48,0,0,0,3,5.77,13.34,13.34,0,0,0,4.72,3.7,15.56,15.56,0,0,0,12.5,0,13.39,13.39,0,0,0,4.71-3.7,16.48,16.48,0,0,0,3-5.77,26,26,0,0,0,1-7.57,25.84,25.84,0,0,0-1-7.56,16.53,16.53,0,0,0-3-5.78A13.37,13.37,0,0,0,572,21.68a15.46,15.46,0,0,0-12.5,0,13.09,13.09,0,0,0-4.72,3.73,16.93,16.93,0,0,0-3,5.77A25.88,25.88,0,0,0,550.82,38.71Z"/><path class="cls-3" d="M613,12.9q11,0,16.78,4t5.81,12.28q0,10.31-10.16,14,1.38,1.68,3.14,4.1c1.17,1.6,2.37,3.35,3.58,5.22s2.39,3.8,3.51,5.78,2.12,3.91,3,5.81H628.31q-1.38-2.62-3-5.3c-1.08-1.78-2.16-3.51-3.26-5.19s-2.18-3.27-3.25-4.75-2.07-2.82-3-4c-.68,0-1.27.08-1.75.08h-5.85V64.08H599V14.15a48.86,48.86,0,0,1,7.16-1Q610,12.91,613,12.9Zm.66,8c-2,0-3.76.08-5.41.22V37.47h4a41.38,41.38,0,0,0,5.92-.37,12.48,12.48,0,0,0,4.28-1.31A6.45,6.45,0,0,0,625,33.23a8.44,8.44,0,0,0,.88-4.1,8.08,8.08,0,0,0-.88-3.94,6.4,6.4,0,0,0-2.52-2.56,11.64,11.64,0,0,0-3.91-1.35A28.31,28.31,0,0,0,613.62,20.87Z"/><path class="cls-2" d="M102.57,56.15v.05h-50v74.23c18.55-7.34,31.08-19.82,38.38-29.14a91.43,91.43,0,0,0,11.69-19.13v-26Z"/><path class="cls-4" d="M.06,56.15v26a90.94,90.94,0,0,0,11.69,19.13c7.29,9.32,19.82,21.8,38.38,29.14V56.2H.09v-.05Z"/><rect class="cls-4" x="52.52" width="50.05" height="53.81"/><rect class="cls-2" width="50.04" height="53.81"/><path class="cls-3" d="M82,99.92a5.19,5.19,0,0,1,3.75,3.34l1,2.88,0,.06c1.51-1.7,2.9-3.35,4.12-4.91,1.72-2.2,3.22-4.31,4.55-6.3l-.53.1c-11.7,1.76-22.53-5.7-24.18-16.68a19.12,19.12,0,0,1,2.67-12.93A5.86,5.86,0,0,1,71.65,65l-3.54-1.7a1,1,0,0,0-1.19.3L63.51,68.2a1,1,0,0,0,.09,1.25l2.24,2.26a5.19,5.19,0,0,1-2,8.57l-2.88,1a1,1,0,0,0-.63,1L61.24,88a1,1,0,0,0,.94.8h3.18A5.19,5.19,0,0,1,70,96.28L68.73,99a1,1,0,0,0,.29,1.18l4.62,3.41a1,1,0,0,0,1.25-.09l2.25-2.24A5.17,5.17,0,0,1,82,99.92Z"/><path class="cls-3" d="M21.79,20.88s-3.07-.28-3.07-2.65.26-7.91-3.83-8.09h-.35c-4.1.18-3.83,5.78-3.83,8.09s-3.07,2.65-3.07,2.65H0v7.34H3.45c1.54,0,3.35.42,4.19,3.77C8.15,34,8.72,45.36,9.08,53.81H20.35c.36-8.45.93-19.77,1.44-21.82.84-3.35,2.65-3.77,4.18-3.77h6.88a6,6,0,0,0,5.44-2.51c2.52-3.07,3.07-2.46,5.45-2.46a2.88,2.88,0,0,0,2.79-2.37Z"/><path class="cls-3" d="M99.09,24.91H67.76s.61,7.84,13.17,8.76v4.76c-3-.66-5.94-1.22-8.24-1.82-7.14-1.87-10-9.2-9.7-13.11s1.54-7.84,7.84-8.35S79,18.56,80.93,20.6a3.26,3.26,0,0,0,4.2.51c1.53-1.19.34-6.46-6.31-9.71S63.5,10.72,60.1,14.81a14.34,14.34,0,0,0,.51,18C64.53,37.7,74,40.63,80.93,42.42V49.3c-.89.18-1.85.34-2.79.52a14.83,14.83,0,0,0-3.8,1.37,12.76,12.76,0,0,0-3.2,2.6h4.61a17.92,17.92,0,0,1,3.07-1.52c.47-.17,1.21-.37,2.11-.59v2.11h3.63V50.73c4.18-1.16,8.91-2.95,8.91-5.95,0-2.6-4.06-4.24-8.91-5.49V33.75C98.44,33.31,99.09,24.91,99.09,24.91ZM86.32,43.76c4.83,1.21,1.41,3.37-1.76,4.56v-5Z"/><path class="cls-3" d="M40.55,75.69h-2V73.82a.82.82,0,0,0-.72-.82L26.43,71.65A13.62,13.62,0,0,0,19,72.9a13.61,13.61,0,0,0-7.44-1.25L.13,73,.06,73v9.14c.28.66,1.28,2.91,3.05,6.12l8.42-1a13.68,13.68,0,0,1,5.14.39.82.82,0,0,1,.58,1,.83.83,0,0,1-1,.58,11.82,11.82,0,0,0-4.51-.34L4,89.83c.36.64.76,1.3,1.18,2l6.35-.75a13.88,13.88,0,0,1,5.14.38A.82.82,0,1,1,16.24,93a11.82,11.82,0,0,0-4.51-.32l-5.58.64c1.23,1.94,2.66,4,4.31,6.24l1.28-.16a11.94,11.94,0,0,1,6.87,1.26.79.79,0,0,0,.76,0,11.92,11.92,0,0,1,6.87-1.26l11.42,1.35h.09a.87.87,0,0,0,.56-.2.86.86,0,0,0,.27-.62V77.33h1.15v25.3H12.83c.44.54.89,1.1,1.37,1.65H40.55a.83.83,0,0,0,.83-.82v-27A.82.82,0,0,0,40.55,75.69Zm-23.3,9.22a.82.82,0,0,1-1,.58,11.82,11.82,0,0,0-4.51-.34l-8.57,1H3.05A.83.83,0,0,1,3,84.52l8.57-1a13.47,13.47,0,0,1,5.14.38A.82.82,0,0,1,17.25,84.91Zm0-3.78a.82.82,0,0,1-1,.58,12,12,0,0,0-4.51-.33l-8.57,1H3.05A.82.82,0,0,1,3,80.75l8.57-1a13.67,13.67,0,0,1,5.14.38A.83.83,0,0,1,17.25,81.13Zm0-3.78a.81.81,0,0,1-1,.58,12,12,0,0,0-4.51-.33l-8.57,1H3.05A.82.82,0,0,1,3,77l8.57-1a13.47,13.47,0,0,1,5.14.37A.83.83,0,0,1,17.25,77.35ZM34.9,93.72h-.1l-8.58-1a11.65,11.65,0,0,0-4.51.32.82.82,0,1,1-.43-1.59,13.91,13.91,0,0,1,5.14-.38l8.57,1a.82.82,0,0,1-.09,1.64Zm0-3.78h-.1l-8.58-1a11.66,11.66,0,0,0-4.51.34.83.83,0,0,1-.43-1.6,13.91,13.91,0,0,1,5.14-.38l8.57,1a.82.82,0,0,1-.09,1.64Zm0-3.77h-.1l-8.58-1a11.85,11.85,0,0,0-4.51.34.83.83,0,0,1-1-.58.82.82,0,0,1,.58-1,13.31,13.31,0,0,1,5.14-.38l8.57,1a.83.83,0,0,1-.09,1.65Zm0-3.78h-.1l-8.58-1a11.85,11.85,0,0,0-4.51.33.83.83,0,0,1-1-.58.82.82,0,0,1,.58-1,13.7,13.7,0,0,1,5.14-.38l8.57,1a.82.82,0,0,1-.09,1.64Zm0-3.78h-.1l-8.58-1a11.85,11.85,0,0,0-4.51.33.82.82,0,1,1-.43-1.59A13.5,13.5,0,0,1,26.42,76L35,77a.82.82,0,0,1-.09,1.64Z"/></g></g></svg>